<mxfile host="app.diagrams.net" modified="2022-07-17T10:32:31.693Z" agent="5.0 (Windows)" etag="dJFfXUDqtRklZ0bCDkfx" version="20.1.1" type="github">
  <diagram name="Page-1" id="55a83fd1-7818-8e21-69c5-c3457e3827bb">
    <mxGraphModel dx="1673" dy="867" grid="1" gridSize="10" guides="1" tooltips="1" connect="1" arrows="1" fold="1" page="1" pageScale="1" pageWidth="1100" pageHeight="850" background="none" math="0" shadow="0">
      <root>
        <mxCell id="0" />
        <mxCell id="1" parent="0" />
        <mxCell id="69ecfefc5c41e42c-1" value="" style="image;html=1;labelBackgroundColor=#ffffff;image=img/lib/clip_art/networking/Wireless_Router_128x128.png;rounded=1;shadow=0;comic=0;strokeWidth=2;fontSize=22" parent="1" vertex="1">
          <mxGeometry x="575" y="402" width="80" height="80" as="geometry" />
        </mxCell>
        <mxCell id="69ecfefc5c41e42c-2" value="Internet" style="image;html=1;labelBackgroundColor=#ffffff;image=img/lib/clip_art/networking/Cloud_128x128.png;rounded=1;shadow=0;comic=0;strokeWidth=2;fontSize=22;labelPosition=center;verticalLabelPosition=top;align=center;verticalAlign=bottom;" parent="1" vertex="1">
          <mxGeometry x="575" y="207" width="80" height="80" as="geometry" />
        </mxCell>
        <mxCell id="69ecfefc5c41e42c-5" value="PC" style="image;html=1;labelBackgroundColor=#ffffff;image=img/lib/clip_art/computers/Monitor_Tower_128x128.png;rounded=1;shadow=0;comic=0;strokeWidth=2;fontSize=22" parent="1" vertex="1">
          <mxGeometry x="415" y="672" width="80" height="80" as="geometry" />
        </mxCell>
        <mxCell id="WetJw6ShrwQGQ3P4Aev7-15" style="edgeStyle=orthogonalEdgeStyle;shape=link;rounded=0;orthogonalLoop=1;jettySize=auto;html=1;fontSize=22;" edge="1" parent="1" source="69ecfefc5c41e42c-6" target="WetJw6ShrwQGQ3P4Aev7-4">
          <mxGeometry relative="1" as="geometry" />
        </mxCell>
        <mxCell id="69ecfefc5c41e42c-6" value="Printer" style="image;html=1;labelBackgroundColor=#ffffff;image=img/lib/clip_art/computers/Printer_128x128.png;rounded=1;shadow=0;comic=0;strokeWidth=2;fontSize=22" parent="1" vertex="1">
          <mxGeometry x="205" y="297" width="80" height="80" as="geometry" />
        </mxCell>
        <mxCell id="69ecfefc5c41e42c-8" value="Mobile" style="image;html=1;labelBackgroundColor=#ffffff;image=img/lib/clip_art/telecommunication/iPhone_128x128.png;rounded=1;shadow=0;comic=0;strokeWidth=2;fontSize=22" parent="1" vertex="1">
          <mxGeometry x="815" y="337" width="80" height="80" as="geometry" />
        </mxCell>
        <mxCell id="69ecfefc5c41e42c-9" value="Laptop" style="image;html=1;labelBackgroundColor=#ffffff;image=img/lib/clip_art/computers/Netbook_128x128.png;rounded=1;shadow=0;comic=0;strokeColor=#000000;strokeWidth=2;fillColor=#FFFFFF;fontSize=22;fontColor=#000000;" parent="1" vertex="1">
          <mxGeometry x="745" y="207" width="80" height="80" as="geometry" />
        </mxCell>
        <mxCell id="69ecfefc5c41e42c-16" value="" style="html=1;fillColor=#CCCCCC;strokeColor=#6881B3;gradientColor=none;gradientDirection=north;strokeWidth=2;shape=mxgraph.networks.comm_link_edge;html=1;labelBackgroundColor=none;endArrow=none;fontFamily=Verdana;fontSize=22;fontColor=#000000;" parent="1" source="69ecfefc5c41e42c-8" target="69ecfefc5c41e42c-1" edge="1">
          <mxGeometry width="100" height="100" relative="1" as="geometry">
            <mxPoint x="465" y="458.9565217391305" as="sourcePoint" />
            <mxPoint x="615" y="485.0434782608695" as="targetPoint" />
          </mxGeometry>
        </mxCell>
        <mxCell id="69ecfefc5c41e42c-17" value="" style="html=1;fillColor=#CCCCCC;strokeColor=#6881B3;gradientColor=none;gradientDirection=north;strokeWidth=2;shape=mxgraph.networks.comm_link_edge;html=1;labelBackgroundColor=none;endArrow=none;fontFamily=Verdana;fontSize=22;fontColor=#000000;" parent="1" source="69ecfefc5c41e42c-9" target="69ecfefc5c41e42c-1" edge="1">
          <mxGeometry width="100" height="100" relative="1" as="geometry">
            <mxPoint x="475" y="468.9565217391305" as="sourcePoint" />
            <mxPoint x="625" y="495.0434782608695" as="targetPoint" />
          </mxGeometry>
        </mxCell>
        <mxCell id="WetJw6ShrwQGQ3P4Aev7-3" value="" style="shape=link;html=1;rounded=0;edgeStyle=orthogonalEdgeStyle;" edge="1" parent="1" source="69ecfefc5c41e42c-1" target="69ecfefc5c41e42c-2">
          <mxGeometry width="100" relative="1" as="geometry">
            <mxPoint x="605" y="407" as="sourcePoint" />
            <mxPoint x="705" y="407" as="targetPoint" />
          </mxGeometry>
        </mxCell>
        <mxCell id="WetJw6ShrwQGQ3P4Aev7-17" style="edgeStyle=orthogonalEdgeStyle;shape=link;rounded=0;orthogonalLoop=1;jettySize=auto;html=1;entryX=0;entryY=0.75;entryDx=0;entryDy=0;fontSize=22;" edge="1" parent="1" source="WetJw6ShrwQGQ3P4Aev7-4" target="69ecfefc5c41e42c-1">
          <mxGeometry relative="1" as="geometry" />
        </mxCell>
        <mxCell id="WetJw6ShrwQGQ3P4Aev7-4" value="" style="image;html=1;image=img/lib/clip_art/networking/Switch_128x128.png" vertex="1" parent="1">
          <mxGeometry x="415" y="297" width="80" height="80" as="geometry" />
        </mxCell>
        <mxCell id="WetJw6ShrwQGQ3P4Aev7-16" style="edgeStyle=orthogonalEdgeStyle;shape=link;rounded=0;orthogonalLoop=1;jettySize=auto;html=1;fontSize=22;" edge="1" parent="1" source="WetJw6ShrwQGQ3P4Aev7-8" target="WetJw6ShrwQGQ3P4Aev7-4">
          <mxGeometry relative="1" as="geometry" />
        </mxCell>
        <mxCell id="WetJw6ShrwQGQ3P4Aev7-8" value="PC" style="image;html=1;labelBackgroundColor=#ffffff;image=img/lib/clip_art/computers/Monitor_Tower_128x128.png;rounded=1;shadow=0;comic=0;strokeWidth=2;fontSize=22" vertex="1" parent="1">
          <mxGeometry x="205" y="487" width="80" height="80" as="geometry" />
        </mxCell>
        <mxCell id="WetJw6ShrwQGQ3P4Aev7-14" style="edgeStyle=orthogonalEdgeStyle;shape=link;rounded=0;orthogonalLoop=1;jettySize=auto;html=1;fontSize=22;" edge="1" parent="1" source="WetJw6ShrwQGQ3P4Aev7-9" target="WetJw6ShrwQGQ3P4Aev7-4">
          <mxGeometry relative="1" as="geometry" />
        </mxCell>
        <mxCell id="WetJw6ShrwQGQ3P4Aev7-9" value="&lt;div style=&quot;font-size: 22px;&quot;&gt;Android TV&lt;/div&gt;" style="image;html=1;image=img/lib/clip_art/computers/Monitor_128x128.png;fontSize=22;" vertex="1" parent="1">
          <mxGeometry x="205" y="97" width="80" height="80" as="geometry" />
        </mxCell>
        <mxCell id="WetJw6ShrwQGQ3P4Aev7-18" value="PC" style="image;html=1;labelBackgroundColor=#ffffff;image=img/lib/clip_art/computers/Monitor_Tower_128x128.png;rounded=1;shadow=0;comic=0;strokeWidth=2;fontSize=22" vertex="1" parent="1">
          <mxGeometry x="725" y="672" width="80" height="80" as="geometry" />
        </mxCell>
        <mxCell id="WetJw6ShrwQGQ3P4Aev7-19" value="Mobile" style="image;html=1;labelBackgroundColor=#ffffff;image=img/lib/clip_art/telecommunication/iPhone_128x128.png;rounded=1;shadow=0;comic=0;strokeWidth=2;fontSize=22" vertex="1" parent="1">
          <mxGeometry x="815" y="487" width="80" height="80" as="geometry" />
        </mxCell>
        <mxCell id="WetJw6ShrwQGQ3P4Aev7-20" value="" style="html=1;fillColor=#CCCCCC;strokeColor=#6881B3;gradientColor=none;gradientDirection=north;strokeWidth=2;shape=mxgraph.networks.comm_link_edge;html=1;labelBackgroundColor=none;endArrow=none;fontFamily=Verdana;fontSize=22;fontColor=#000000;" edge="1" source="WetJw6ShrwQGQ3P4Aev7-19" parent="1" target="69ecfefc5c41e42c-1">
          <mxGeometry width="100" height="100" relative="1" as="geometry">
            <mxPoint x="505" y="583.9565217391305" as="sourcePoint" />
            <mxPoint x="695" y="555.5714285714287" as="targetPoint" />
          </mxGeometry>
        </mxCell>
        <mxCell id="WetJw6ShrwQGQ3P4Aev7-22" style="edgeStyle=orthogonalEdgeStyle;shape=link;rounded=0;orthogonalLoop=1;jettySize=auto;html=1;fontSize=22;" edge="1" parent="1" source="WetJw6ShrwQGQ3P4Aev7-21" target="69ecfefc5c41e42c-1">
          <mxGeometry relative="1" as="geometry" />
        </mxCell>
        <mxCell id="WetJw6ShrwQGQ3P4Aev7-23" style="edgeStyle=orthogonalEdgeStyle;shape=link;rounded=0;orthogonalLoop=1;jettySize=auto;html=1;entryX=0.5;entryY=0;entryDx=0;entryDy=0;fontSize=22;" edge="1" parent="1" source="WetJw6ShrwQGQ3P4Aev7-21" target="69ecfefc5c41e42c-5">
          <mxGeometry relative="1" as="geometry" />
        </mxCell>
        <mxCell id="WetJw6ShrwQGQ3P4Aev7-24" style="edgeStyle=orthogonalEdgeStyle;shape=link;rounded=0;orthogonalLoop=1;jettySize=auto;html=1;entryX=0.5;entryY=0;entryDx=0;entryDy=0;fontSize=22;" edge="1" parent="1" source="WetJw6ShrwQGQ3P4Aev7-21" target="WetJw6ShrwQGQ3P4Aev7-18">
          <mxGeometry relative="1" as="geometry" />
        </mxCell>
        <mxCell id="WetJw6ShrwQGQ3P4Aev7-21" value="" style="image;html=1;image=img/lib/clip_art/networking/Switch_128x128.png" vertex="1" parent="1">
          <mxGeometry x="575" y="537" width="80" height="80" as="geometry" />
        </mxCell>
      </root>
    </mxGraphModel>
  </diagram>
</mxfile>
